<svg width="456" height="112" viewBox="0 0 456 112" fill="none" xmlns="http://www.w3.org/2000/svg">
<path d="M134.379 42H119.917V18.375H134.311V20.7881H122.516V28.8881H133.906V31.3013H122.516V39.5869H134.379V42ZM141.25 42H138.803V25.9688H141.182V28.1456C142.313 26.4244 144.169 25.6988 146.076 25.6988C149.502 25.6988 151.83 27.9431 151.83 31.5038V42H149.383V32.2294C149.383 29.5631 147.915 28.0106 145.401 28.0106C143.072 28.0106 141.25 29.6981 141.25 32.3138V42ZM165.069 42H156.716V18.375H164.715C169.339 18.375 172.511 20.265 172.511 24.6356C172.511 27.42 170.959 29.1919 168.613 29.8669C171.161 30.5419 172.967 32.4319 172.967 35.4863C172.967 39.9244 169.929 42 165.069 42ZM159.315 20.7713V28.8038H164.664C167.634 28.8038 169.794 27.825 169.794 24.7875C169.794 21.7838 167.618 20.7713 164.648 20.7713H159.315ZM159.315 31.1831V39.6038H165.002C168.174 39.6038 170.25 38.49 170.25 35.385C170.25 32.2969 168.174 31.1831 164.985 31.1831H159.315ZM184.792 42.0337H181.653L174.887 18.375H177.587L183.273 38.8781L189.095 18.375H191.93L197.752 38.895L203.439 18.375H206.105L199.322 42.0337H196.183L190.496 22.1719L184.792 42.0337Z" fill="#000099"/>
<path d="M130.43 77.25H124.726L117.673 53.625H122.566L127.646 71.7488L132.928 53.625H138.142L143.424 71.7488L148.503 53.625H153.313L146.259 77.25H140.555L135.493 60.375L130.43 77.25ZM161.281 77.6719C156.776 77.6719 153.367 73.9763 153.367 69.0656C153.367 64.155 156.776 60.4594 161.281 60.4594C163.526 60.4594 165.095 61.3706 166.175 62.7038V60.8981H170.478V77.25H166.175V75.4444C165.112 76.7606 163.526 77.6719 161.281 77.6719ZM162.091 73.5713C164.606 73.5713 166.31 71.6475 166.31 69.0656C166.31 66.4838 164.606 64.56 162.091 64.56C159.509 64.56 157.873 66.5681 157.873 69.0656C157.873 71.5631 159.509 73.5713 162.091 73.5713ZM182.738 77.6719C178.688 77.6719 176.613 75.3769 176.613 71.1413V64.8131H173.457V60.8981H176.613V56.0381H181.017V60.8981H186.94V64.8131H181.017V70.7869C181.017 72.8288 182.097 73.5713 183.464 73.5713C184.51 73.5713 185.641 73.0481 186.535 72.5081L188.155 75.9506C186.721 76.9294 185.067 77.6719 182.738 77.6719ZM198.063 77.6719C194.013 77.6719 191.938 75.3769 191.938 71.1413V64.8131H188.782V60.8981H191.938V56.0381H196.342V60.8981H202.265V64.8131H196.342V70.7869C196.342 72.8288 197.422 73.5713 198.789 73.5713C199.835 73.5713 200.966 73.0481 201.86 72.5081L203.48 75.9506C202.046 76.9294 200.392 77.6719 198.063 77.6719ZM212.248 77.6719C210.021 77.6719 207.101 77.25 204.975 75.7481L206.713 72.4069C208.114 73.335 209.818 74.01 212.282 74.01C214.324 74.01 215.303 73.4363 215.303 72.4744C215.303 71.6813 214.476 71.2425 212.586 70.9725L211.253 70.7869C207.473 70.2638 205.6 68.61 205.6 65.8256C205.6 62.4675 208.198 60.4763 212.501 60.4763C215.117 60.4763 217.159 60.9656 219.336 62.0288L217.851 65.4544C216.551 64.8131 214.476 64.1381 212.636 64.1213C210.966 64.1213 210.122 64.7119 210.122 65.6063C210.122 66.5513 211.303 66.7875 212.788 67.0069L214.24 67.2263C217.783 67.7663 219.758 69.3525 219.758 72.12C219.758 75.495 216.99 77.6719 212.248 77.6719ZM233.57 77.6719C227.563 77.6719 223.395 74.3475 223.395 67.8169V53.625H228.12V67.5806C228.12 71.4619 230.314 73.1663 233.57 73.1663C236.827 73.1663 239.021 71.4619 239.021 67.5806V53.625H243.746V67.8169C243.746 74.3475 239.578 77.6719 233.57 77.6719ZM252.894 84H248.506V60.8981H252.809V62.7038C253.873 61.3706 255.442 60.4594 257.686 60.4594C262.209 60.4594 265.618 64.155 265.618 69.0656C265.618 73.9763 262.209 77.6719 257.703 77.6719C255.509 77.6719 253.957 76.8113 252.894 75.5456V84ZM256.876 73.5713C259.475 73.5713 261.095 71.5631 261.095 69.0656C261.095 66.5681 259.475 64.56 256.876 64.56C254.379 64.56 252.674 66.4838 252.674 69.0656C252.674 71.6475 254.379 73.5713 256.876 73.5713ZM289.218 77.6887C281.945 77.6887 276.815 72.5419 276.815 65.4375C276.815 58.3331 281.945 53.1863 289.218 53.1863C293.572 53.1863 297.42 55.1775 299.343 58.485L295.293 60.9656C293.96 58.9238 291.817 57.7088 289.185 57.7088C284.898 57.7088 281.726 60.8475 281.726 65.4375C281.743 70.1794 285.016 73.1663 289.185 73.1663C291.8 73.1663 293.926 71.985 295.344 69.9263L299.191 72.6938C297.099 75.765 293.538 77.6887 289.218 77.6887ZM307.488 77.25H303.084V52.9331H307.488V62.6531C308.653 61.0331 310.391 60.4594 312.18 60.4594C315.892 60.4594 318.542 63.0413 318.542 66.8381V77.25H314.137V68.2556C314.137 65.8931 312.956 64.5938 310.948 64.5938C309.058 64.5938 307.488 65.8256 307.488 68.2894V77.25ZM329.892 77.6719C325.387 77.6719 321.978 73.9763 321.978 69.0656C321.978 64.155 325.387 60.4594 329.892 60.4594C332.137 60.4594 333.706 61.3706 334.786 62.7038V60.8981H339.089V77.25H334.786V75.4444C333.723 76.7606 332.137 77.6719 329.892 77.6719ZM330.702 73.5713C333.217 73.5713 334.921 71.6475 334.921 69.0656C334.921 66.4838 333.217 64.56 330.702 64.56C328.12 64.56 326.484 66.5681 326.484 69.0656C326.484 71.5631 328.12 73.5713 330.702 73.5713ZM351.349 77.6719C347.299 77.6719 345.224 75.3769 345.224 71.1413V64.8131H342.068V60.8981H345.224V56.0381H349.628V60.8981H355.551V64.8131H349.628V70.7869C349.628 72.8288 350.708 73.5713 352.075 73.5713C353.121 73.5713 354.252 73.0481 355.146 72.5081L356.766 75.9506C355.332 76.9294 353.678 77.6719 351.349 77.6719ZM368.605 77.6719C366.344 77.6719 364.775 76.7606 363.712 75.4444V77.25H359.409V52.95H363.796V62.6025C364.859 61.32 366.395 60.4594 368.589 60.4594C373.111 60.4594 376.52 64.155 376.52 69.0656C376.52 73.9763 373.111 77.6719 368.605 77.6719ZM367.779 73.5713C370.377 73.5713 371.997 71.5631 371.997 69.0656C371.997 66.5681 370.377 64.56 367.779 64.56C365.281 64.56 363.577 66.4838 363.577 69.0656C363.577 71.6475 365.281 73.5713 367.779 73.5713ZM387.886 77.6719C382.807 77.6719 379.061 73.9931 379.061 69.0656C379.061 64.1381 382.807 60.4594 387.886 60.4594C392.982 60.4594 396.746 64.1381 396.746 69.0656C396.746 73.9931 392.982 77.6719 387.886 77.6719ZM387.886 73.5713C390.367 73.5713 392.24 71.715 392.24 69.0656C392.24 66.4163 390.367 64.56 387.886 64.56C385.406 64.56 383.549 66.4163 383.549 69.0656C383.549 71.715 385.406 73.5713 387.886 73.5713ZM407.806 77.6719C403.756 77.6719 401.68 75.3769 401.68 71.1413V64.8131H398.524V60.8981H401.68V56.0381H406.084V60.8981H412.007V64.8131H406.084V70.7869C406.084 72.8288 407.164 73.5713 408.531 73.5713C409.577 73.5713 410.708 73.0481 411.602 72.5081L413.222 75.9506C411.788 76.9294 410.134 77.6719 407.806 77.6719Z" fill="#000099"/>
<rect width="96" height="96" rx="48" fill="#FF8F0F"/>
<path fill-rule="evenodd" clip-rule="evenodd" d="M42.3528 40.9411C42.3528 40.1614 42.9849 39.5293 43.7646 39.5293C44.5443 39.5293 45.1764 40.1614 45.1764 40.9411C45.1764 41.7208 44.5443 42.3529 43.7646 42.3529C42.9849 42.3529 42.3528 41.7208 42.3528 40.9411ZM43.7646 36.7058C41.4255 36.7058 39.5293 38.602 39.5293 40.9411C39.5293 42.7851 40.7078 44.3539 42.3527 44.9353V47.9999H31.0588C27.94 47.9999 25.4117 50.5282 25.4117 53.6469V53.7896C24.9713 53.8795 24.5395 54.0114 24.1222 54.1843C23.2658 54.539 22.4876 55.059 21.8321 55.7144C21.1767 56.3699 20.6567 57.1481 20.302 58.0045C19.9472 58.8609 19.7646 59.7788 19.7646 60.7058C19.7646 61.6328 19.9472 62.5507 20.302 63.4071C20.6567 64.2635 21.1767 65.0417 21.8321 65.6971C22.4876 66.3526 23.2658 66.8726 24.1222 67.2273C24.5395 67.4001 24.9713 67.5321 25.4117 67.622V67.7646C25.4117 70.8834 27.94 73.4116 31.0588 73.4116H32.4706C33.2503 73.4116 33.8823 72.7796 33.8823 71.9999C33.8823 71.2202 33.2503 70.5881 32.4706 70.5881H31.0588C29.4994 70.5881 28.2353 69.324 28.2353 67.7646V63.5293V53.6469C28.2353 52.0875 29.4994 50.8234 31.0588 50.8234H57.8823C59.4417 50.8234 60.7059 52.0875 60.7059 53.6469V55.0432C60.7058 55.0484 60.7058 55.0535 60.7058 55.0587C60.7058 55.0639 60.7058 55.0691 60.7059 55.0743V66.3373C60.7058 66.3425 60.7058 66.3477 60.7058 66.3528C60.7058 66.358 60.7058 66.3632 60.7059 66.3684V67.7646C60.7059 69.324 59.4417 70.5881 57.8823 70.5881H39.5294C38.7497 70.5881 38.1176 71.2202 38.1176 71.9999C38.1176 72.7796 38.7497 73.4116 39.5294 73.4116H57.8823C61.0011 73.4116 63.5294 70.8834 63.5294 67.7646V67.622C64.8754 67.3472 66.1229 66.6831 67.1089 65.6971C68.4327 64.3733 69.1764 62.5779 69.1764 60.7058C69.1764 58.8337 68.4327 57.0382 67.1089 55.7144C66.1229 54.7285 64.8754 54.0644 63.5294 53.7896V53.6469C63.5294 50.5281 61.0011 47.9999 57.8823 47.9999H45.1762V44.9355C46.8213 44.3541 47.9999 42.7852 47.9999 40.9411C47.9999 38.602 46.1037 36.7058 43.7646 36.7058ZM63.5294 56.7127V64.6988C64.1193 64.4902 64.6614 64.1515 65.1123 63.7006C65.9066 62.9063 66.3528 61.8291 66.3528 60.7058C66.3528 59.5825 65.9066 58.5053 65.1123 57.711C64.6614 57.2601 64.1193 56.9214 63.5294 56.7127ZM25.2027 56.7929C25.2717 56.7643 25.3414 56.7376 25.4117 56.7127V63.5293V64.6989C25.3414 64.674 25.2717 64.6473 25.2027 64.6187C24.6888 64.4058 24.2219 64.0939 23.8287 63.7006C23.4354 63.3073 23.1234 62.8404 22.9106 62.3266C22.6977 61.8127 22.5882 61.262 22.5882 60.7058C22.5882 60.1496 22.6977 59.5989 22.9106 59.085C23.1234 58.5712 23.4354 58.1043 23.8287 57.711C24.2219 57.3177 24.6888 57.0057 25.2027 56.7929ZM36.7058 57.8822C35.9261 57.8822 35.294 58.5143 35.294 59.294C35.294 60.0737 35.9261 60.7058 36.7058 60.7058C37.4854 60.7058 38.1175 60.0737 38.1175 59.294C38.1175 58.5143 37.4854 57.8822 36.7058 57.8822ZM32.4705 59.294C32.4705 56.9549 34.3667 55.0587 36.7058 55.0587C39.0448 55.0587 40.941 56.9549 40.941 59.294C40.941 61.6331 39.0448 63.5293 36.7058 63.5293C34.3667 63.5293 32.4705 61.6331 32.4705 59.294ZM50.8234 59.294C50.8234 58.5143 51.4555 57.8822 52.2352 57.8822C53.0149 57.8822 53.6469 58.5143 53.6469 59.294C53.6469 60.0737 53.0149 60.7058 52.2352 60.7058C51.4555 60.7058 50.8234 60.0737 50.8234 59.294ZM52.2352 55.0587C49.8961 55.0587 47.9999 56.9549 47.9999 59.294C47.9999 61.6331 49.8961 63.5293 52.2352 63.5293C54.5743 63.5293 56.4705 61.6331 56.4705 59.294C56.4705 56.9549 54.5743 55.0587 52.2352 55.0587Z" fill="white"/>
<path fill-rule="evenodd" clip-rule="evenodd" d="M48 23.9999C48 21.6609 49.8962 19.7646 52.2353 19.7646H72C74.3391 19.7646 76.2353 21.6609 76.2353 23.9999V35.2941C76.2353 37.6331 74.3391 39.5294 72 39.5294H64.0246L57.3525 44.8671L55.0588 46.702V43.7646V39.5294H52.2353C49.8962 39.5294 48 37.6331 48 35.2941V23.9999ZM52.2353 22.5882C51.4556 22.5882 50.8235 23.2202 50.8235 23.9999V35.2941C50.8235 36.0738 51.4556 36.7058 52.2353 36.7058H56.4706H57.8824V38.1176V40.8273L62.6475 37.0152L63.0342 36.7058H63.5294H72C72.7797 36.7058 73.4118 36.0738 73.4118 35.2941V23.9999C73.4118 23.2202 72.7797 22.5882 72 22.5882H52.2353ZM53.6471 26.8235C53.6471 26.0438 54.2792 25.4117 55.0589 25.4117H69.1765C69.9562 25.4117 70.5883 26.0438 70.5883 26.8235C70.5883 27.6032 69.9562 28.2353 69.1765 28.2353L55.0589 28.2353C54.2792 28.2353 53.6471 27.6032 53.6471 26.8235ZM55.0589 31.0587C54.2792 31.0587 53.6471 31.6908 53.6471 32.4705C53.6471 33.2502 54.2792 33.8822 55.0589 33.8822H69.1765C69.9562 33.8822 70.5883 33.2502 70.5883 32.4705C70.5883 31.6908 69.9562 31.0587 69.1765 31.0587L55.0589 31.0587Z" fill="white"/>
</svg>
